<svg width="13" height="16" viewBox="0 0 13 16" xmlns="http://www.w3.org/2000/svg">
    <path
        fill="#FF4433"
        fill-rule="evenodd"
        d="
      M6.0209 0
      C2.69556 0 0 2.69556 0 6.0209
      C0 7.68297 0.673438 9.1879 1.76262 10.2774
      C2.8521 11.3675 5.41881 12.9449 5.56934 14.6007
      C5.5919 14.849 5.77164 15.0523 6.0209 15.0523
      C6.27017 15.0523 6.4499 14.849 6.47247 14.6007
      C6.62299 12.9449 9.1897 11.3675 10.2792 10.2774
      C11.3684 9.1879 12.0418 7.68297 12.0418 6.0209
      C12.0418 2.69556 9.34625 0 6.0209 0Z

      M6 3
      A3 3 0 1 1 6 9
      A3 3 0 1 1 6 3Z
    "
    />
</svg>
